<svg xmlns="http://www.w3.org/2000/svg" viewBox="29 89.752 317.3 114.595">
  <defs>
    <style>
      .cls-1 {
        fill: #ee705f;
      }

      .cls-2 {
        fill: #fff;
      }
    </style>
  </defs>
  <g id="group-2" transform="translate(29 89.752)">
    <g id="group">
      <path id="path" class="cls-1" d="M296.527,114.595H20.773A20.834,20.834,0,0,1,0,93.822V20.773A20.834,20.834,0,0,1,20.773,0H296.527A20.834,20.834,0,0,1,317.3,20.773v73.05A20.834,20.834,0,0,1,296.527,114.595Z"/>
    </g>
    <g id="group-2-2" data-name="group" transform="translate(30.12 14.876)">
      <path id="path-2" data-name="path" class="cls-2" d="M18.439,74.038c3.116-10.732,14.368-33.236,25.1-50.027a9.615,9.615,0,0,1-7.27-5.539c-.866-1.9-.346-2.943,2.423-3.289,4.674-.346,9.521-2.077,14.021-3.635A46.056,46.056,0,0,1,66.215,8.6C73.14,8.432,79.2,10.163,82.141,19.164c2.943,8.655.519,14.887-3.808,21.638C72.1,50.5,58.945,60.709,43.366,62.786a17.187,17.187,0,0,1-8.309-.519c-3.289,6.4-7.27,14.541-11.425,24.061-1.039,2.25-2.077,2.25-3.808.519A9.166,9.166,0,0,1,17.4,80.27,31.091,31.091,0,0,1,18.439,74.038ZM39.9,52.919c24.754-5.539,36.871-23.888,34.621-32.2C74.005,19.164,72.1,18.3,70.543,18.3c-2.943,0-7.443,1.558-11.771,3.116-2.077.692-2.943,1.039-4.674,1.558-.173,3.116-1.9,8.136-4.674,13.329C48.213,38.206,47,40.456,39.9,52.919Z" transform="translate(-17.4 -8.593)"/>
      <path id="path-3" data-name="path" class="cls-2" d="M56.871,77.178a100.319,100.319,0,0,1,16.618-2.77c6.924-.519,10.386,2.077,12.117,6.059.692,1.558.346,2.77-2.423,2.77-5.886-.173-19.215,2.943-26.312,4.847-3.635.866-5.193.866-6.924-1.558C48.735,84.795,47,82.545,46.658,81.16c-.866-2.25-.866-4.155.346-7.617C53.063,58.31,73.489,20.92,81.279,10.533c2.077-2.77,3.462-1.9,4.674.346a11.066,11.066,0,0,1,1.039,5.193c0,3.116-1.039,7.443-4.154,12.983C71.758,48.789,63.622,62.638,56.871,77.178Z" transform="translate(3.542 -8.445)"/>
      <path id="path-4" data-name="path" class="cls-2" d="M71.637,74.318C77.177,59.6,89.294,37.1,99.507,21c-2.943-1.9-4.328-3.808-5.02-6.232-.346-1.731,1.039-2.423,2.943-2.423a112.137,112.137,0,0,0,19.388-1.731A69.688,69.688,0,0,1,127.723,9.4c5.712-.173,8.828,2.077,10.386,6.4.519,1.385-.346,2.423-2.77,2.423-6.232,0-12.983,1.212-18.868,2.423a50.739,50.739,0,0,1-5.02.866C107.3,27.753,101.584,38.139,95.7,48.7c2.6-.346,4.674-.519,6.4-.692,6.924-.173,10.04,2.077,11.425,6.059.692,1.558.346,2.943-2.423,2.943-6.059,0-14.887,1.558-21.638,3.289C86,66.875,83.408,72.068,80.812,77.607a99.953,99.953,0,0,1,16.964-2.943c6.751-.173,10.213,1.731,11.771,5.886.692,1.731.173,2.77-2.423,2.77-6.578-.173-19.907,3.116-26.831,5.02-2.943.866-5.02.866-6.578-1.558-.866-1.212-1.731-3.289-3.116-5.539C70.079,79.511,70.426,77.78,71.637,74.318Z" transform="translate(21.32 -8.008)"/>
      <path id="path-5" data-name="path" class="cls-2" d="M123.962,67.114c0-7.27.519-17.657,1.558-28.216-8.828,15.233-17.657,32.37-23.2,47.777-.866,2.423-2.77,2.6-4.5.692A11.844,11.844,0,0,1,95.4,80.443,27.272,27.272,0,0,1,96.958,73c6.4-16.618,22.33-46.392,31.851-62.144,1.558-2.77,3.116-2.77,5.02-1.212,3.808,2.77,5.539,5.366,5.539,9.867a27.074,27.074,0,0,1-.692,6.059,360,360,0,0,0-3.808,37.391A564.037,564.037,0,0,1,163.6,10.509c1.9-2.6,3.289-2.077,4.674.346a11.616,11.616,0,0,1,1.039,4.847c0,2.943-.692,7.27-4.674,13.5-6.924,11.425-22.33,40.679-29.947,57.644-.692,1.558-2.077,2.25-4.155,1.039-4.154-2.077-6.059-5.366-6.578-11.771Z" transform="translate(39.621 -8.593)"/>
      <path id="path-6" data-name="path" class="cls-2" d="M135.492,74.706c3.116-10.386,15.752-35.659,26.658-52.624-1.9.173-3.635.519-5.366.519-8.136,0-13.5-2.943-14.887-7.79-.346-1.558.692-2.423,2.423-2.423,10.906,0,30.813-3.289,38.083-3.289,5.712,0,10.906,1.558,12.81,6.751.692,1.558.173,2.943-2.77,2.77-5.366-.692-12.637.519-19.388,1.558.173,4.5-3.462,11.771-8.828,21.119-6.4,11.771-15.406,28.216-22.677,44.661-1.039,2.25-2.423,2.423-4.154.692-1.9-1.731-2.6-3.808-2.6-6.924A16.736,16.736,0,0,1,135.492,74.706Z" transform="translate(68.424 -8.223)"/>
    </g>
  </g>
</svg>
